# Blender v3.4.1 OBJ File: ''
# www.blender.org
mtllib MeteoriteChip.mtl
o Sphere
v 0.000000 1.819269 0.000000
v 0.029260 0.001249 -0.000000
v 0.259128 1.895683 0.270127
v 0.519411 1.806314 0.499751
v 0.742748 1.625445 0.748201
v 0.936815 1.427076 0.998278
v 1.135544 1.168120 1.175875
v 1.279800 0.830817 1.306563
v 1.347419 0.415460 1.387040
v 1.385591 0.000000 1.414213
v 0.213937 1.861567 0.305618
v 0.424017 1.741968 0.530685
v 0.606884 1.542037 0.802977
v 0.766548 1.376571 1.137073
v 0.908266 1.118139 1.382683
v 1.016436 0.770920 1.536355
v 1.085067 0.390181 1.630986
v 1.111139 0.000000 1.662939
v 0.149316 1.820121 0.326817
v 0.292893 1.657076 0.526372
v 0.425215 1.423301 0.786922
v 0.541196 1.288694 1.181043
v 0.636379 1.107459 1.532674
v 0.707107 0.765367 1.707106
v 0.750660 0.390181 1.812254
v 0.765366 0.000000 1.823436
v 0.076120 1.777839 0.337555
v 0.149316 1.572889 0.509959
v 0.216772 1.311607 0.738457
v 0.275899 1.191884 1.164710
v 0.324423 1.078541 1.598386
v 0.360480 0.765367 1.812254
v 0.382683 0.390181 1.900712
v 0.390180 0.000000 1.750279
v -0.000000 1.740740 0.340767
v -0.000000 1.516447 0.501613
v -0.000000 1.262939 0.711140
v -0.000000 1.150461 1.150460
v -0.000000 1.061728 1.613526
v 0.000000 0.765367 1.847759
v -0.000000 0.390181 1.899804
v -0.000001 0.000000 1.670307
v -0.076120 1.712798 0.337555
v -0.149316 1.502678 0.509959
v -0.216773 1.311171 0.738457
v -0.275899 1.191884 1.164710
v -0.324423 1.078541 1.598386
v -0.360480 0.765367 1.812254
v -0.382684 0.390181 1.900712
v -0.390181 0.000000 1.750279
v -0.149316 1.694872 0.326817
v -0.292893 1.531198 0.526372
v -0.425215 1.417932 0.786921
v -0.541196 1.288694 1.181043
v -0.636379 1.107459 1.532673
v -0.707106 0.765367 1.707106
v -0.750661 0.390181 1.812254
v -0.765367 0.000000 1.823435
v -0.216773 1.684511 0.305618
v -0.425215 1.587638 0.531036
v -0.617316 1.539418 0.808491
v -0.785695 1.382325 1.143987
v -0.923879 1.111140 1.382683
v -1.026559 0.765367 1.536355
v -1.089790 0.390181 1.630985
v -1.111140 0.000000 1.662938
v -0.275899 1.676952 0.270127
v -0.541196 1.644349 0.502396
v -0.785695 1.629290 0.761526
v -1.000000 1.414214 1.000000
v -1.175875 1.111140 1.175875
v -1.306562 0.765367 1.306563
v -1.387040 0.390181 1.387039
v -1.414213 0.000000 1.414212
v -0.324423 1.667573 0.216763
v -0.636379 1.671069 0.422727
v -0.923879 1.649060 0.617316
v -1.176607 1.415993 0.785695
v -1.398334 1.141880 0.923879
v -1.541628 0.800346 1.026560
v -1.604772 0.395322 1.089789
v -1.644276 0.000000 1.111139
v -0.360480 1.661571 0.149316
v -0.707107 1.667028 0.292893
v -1.026419 1.646568 0.425214
v -1.298801 1.435708 0.541196
v -1.552188 1.212065 0.636379
v -1.708854 0.899866 0.707107
v -1.733786 0.457498 0.750660
v -1.731071 0.000381 0.765365
v -0.382683 1.667584 0.076120
v -0.750660 1.674036 0.149316
v -1.081398 1.647281 0.216772
v -1.337659 1.442338 0.275899
v -1.581135 1.241966 0.324423
v -1.742869 0.965367 0.360480
v -1.746200 0.513166 0.382683
v -1.713985 0.010539 0.390179
v -0.390180 1.683993 -0.000000
v -0.765366 1.693677 -0.000000
v -1.091067 1.651690 -0.000000
v -1.304430 1.424706 -0.000000
v -1.479490 1.189904 -0.000000
v -1.586837 0.892931 -0.000000
v -1.600333 0.468498 -0.000001
v -1.617803 0.002497 -0.000001
vt 0.125000 0.500000
vt 0.062500 0.500000
vt 0.000000 0.000000
vt 0.359375 1.000000
vt 0.375000 0.875000
vt 0.000000 0.687500
vt 0.000000 0.875000
vt 0.375000 0.937500
vt 0.343750 0.937500
vt 0.343750 0.875000
vt 0.375000 0.812500
vt 0.343750 0.812500
vt 0.375000 0.750000
vt 0.343750 0.750000
vt 0.375000 0.687500
vt 0.343750 0.687500
vt 0.375000 0.625000
vt 0.343750 0.625000
vt 0.375000 0.562500
vt 0.343750 0.562500
vt 0.375000 0.500000
vt 0.343750 0.500000
vt 0.312500 0.750000
vt 0.312500 0.687500
vt 0.312500 0.625000
vt 0.312500 0.562500
vt 0.312500 0.500000
vt 0.328125 1.000000
vt 0.312500 0.937500
vt 0.312500 0.875000
vt 0.312500 0.812500
vt 0.281250 0.937500
vt 0.281250 0.875000
vt 0.281250 0.812500
vt 0.281250 0.750000
vt 0.281250 0.687500
vt 0.281250 0.625000
vt 0.281250 0.562500
vt 0.281250 0.500000
vt 0.296875 1.000000
vt 0.250000 0.687500
vt 0.250000 0.625000
vt 0.250000 0.562500
vt 0.250000 0.500000
vt 0.265625 1.000000
vt 0.250000 0.937500
vt 0.250000 0.875000
vt 0.250000 0.812500
vt 0.250000 0.750000
vt 0.218750 0.937500
vt 0.218750 0.875000
vt 0.218750 0.812500
vt 0.218750 0.750000
vt 0.218750 0.687500
vt 0.218750 0.625000
vt 0.218750 0.562500
vt 0.218750 0.500000
vt 0.234375 1.000000
vt 0.187500 0.687500
vt 0.187500 0.625000
vt 0.187500 0.562500
vt 0.187500 0.500000
vt 0.203125 1.000000
vt 0.187500 0.937500
vt 0.187500 0.875000
vt 0.187500 0.812500
vt 0.187500 0.750000
vt 0.156250 0.875000
vt 0.156250 0.812500
vt 0.156250 0.750000
vt 0.156250 0.687500
vt 0.156250 0.625000
vt 0.156250 0.562500
vt 0.156250 0.500000
vt 0.171875 1.000000
vt 0.156250 0.937500
vt 0.125000 0.625000
vt 0.125000 0.562500
vt 0.140625 1.000000
vt 0.125000 0.937500
vt 0.125000 0.875000
vt 0.125000 0.812500
vt 0.125000 0.750000
vt 0.125000 0.687500
vt 0.093750 0.812500
vt 0.093750 0.750000
vt 0.093750 0.687500
vt 0.093750 0.625000
vt 0.093750 0.562500
vt 0.093750 0.500000
vt 0.109375 1.000000
vt 0.093750 0.937500
vt 0.093750 0.875000
vt 0.062500 0.562500
vt 0.078125 1.000000
vt 0.062500 0.937500
vt 0.062500 0.875000
vt 0.062500 0.812500
vt 0.062500 0.750000
vt 0.062500 0.687500
vt 0.062500 0.625000
vt 0.031250 0.812500
vt 0.031250 0.750000
vt 0.031250 0.687500
vt 0.031250 0.625000
vt 0.031250 0.562500
vt 0.031250 0.500000
vt 0.046875 1.000000
vt 0.031250 0.937500
vt 0.031250 0.875000
vt 0.000000 0.562500
vt 0.000000 0.500000
vt 0.015625 1.000000
vt 0.000000 0.937500
vt 0.000000 0.812500
vt 0.000000 0.750000
vt 0.000000 0.625000
vn -0.5531 -0.6442 0.5283
vn -0.7301 -0.6750 0.1059
vn 0.3071 -0.6273 -0.7157
vn 0.1200 0.7286 -0.6744
vn 0.5522 0.8316 -0.0587
vn -0.5146 0.3413 -0.7866
vn -0.0260 0.7598 -0.6497
vn 0.2582 0.9432 -0.2093
vn -0.3905 0.7918 0.4696
vn -0.3017 0.6731 0.6752
vn 0.6546 0.7543 -0.0506
vn -0.2546 0.7556 0.6036
vn 0.7171 0.6960 -0.0366
vn 0.0226 0.8193 0.5729
vn 0.8590 0.5119 -0.0025
vn 0.3506 0.6339 0.6894
vn 0.9515 0.3029 0.0532
vn 0.5111 0.3758 0.7730
vn 0.9876 0.1439 0.0622
vn 0.5559 0.1834 0.8108
vn 0.8395 -0.5409 0.0506
vn 0.4354 -0.6406 0.6325
vn -0.2163 0.8631 0.4564
vn 0.1411 0.7159 0.6838
vn 0.3345 0.3903 0.8578
vn 0.3029 0.1133 0.9463
vn 0.1848 -0.6622 0.7262
vn -0.4242 0.7518 0.5048
vn -0.3861 0.5749 0.7214
vn -0.4200 0.7107 0.5643
vn -0.3940 0.7535 0.5263
vn -0.3241 0.5693 0.7556
vn -0.3319 0.7742 0.5390
vn -0.2221 0.9259 0.3056
vn 0.0012 0.7932 0.6090
vn 0.1364 0.3955 0.9083
vn 0.0595 -0.0441 0.9973
vn -0.0240 -0.8122 0.5829
vn -0.0000 0.8276 0.5613
vn -0.0000 0.3947 0.9188
vn -0.0000 -0.1329 0.9911
vn -0.0000 -0.8785 0.4778
vn -0.3009 0.7865 0.5393
vn -0.1206 0.6277 0.7690
vn -0.0302 0.8472 0.5304
vn -0.0002 0.9687 0.2482
vn -0.1743 0.8266 0.5351
vn 0.1241 0.6881 0.7149
vn 0.2870 0.8247 0.4873
vn 0.2200 0.9270 0.3038
vn -0.0012 0.7932 0.6090
vn -0.1364 0.3955 0.9083
vn -0.0595 -0.0441 0.9973
vn 0.0240 -0.8122 0.5829
vn -0.1370 0.7136 0.6870
vn -0.3313 0.3901 0.8591
vn -0.3007 0.1124 0.9471
vn -0.1837 -0.6626 0.7261
vn -0.0733 0.8652 0.4960
vn 0.2685 0.7480 0.6070
vn 0.4110 0.7846 0.4642
vn 0.2192 0.8621 0.4569
vn 0.2809 0.8414 0.4616
vn 0.2881 0.8328 0.4726
vn -0.0452 0.8115 0.5826
vn -0.3747 0.6195 0.6898
vn -0.5121 0.3819 0.7693
vn -0.5398 0.1872 0.8207
vn -0.4141 -0.6483 0.6389
vn -0.0461 0.9160 0.3986
vn -0.6493 0.3663 0.6665
vn -0.7044 0.1857 0.6851
vn -0.0987 0.9686 0.2283
vn 0.1528 0.9552 0.2535
vn -0.0392 0.9180 0.3946
vn -0.3594 0.7621 0.5385
vn -0.5504 0.5660 0.6137
vn -0.2628 0.9352 0.2374
vn -0.5150 0.7494 0.4161
vn -0.6307 0.5754 0.5206
vn -0.7725 0.3239 0.5462
vn -0.8602 0.1390 0.4906
vn -0.6870 -0.6347 0.3539
vn -0.1597 0.9843 0.0754
vn 0.0027 0.9984 0.0566
vn -0.9764 0.0530 0.2094
vn -0.1584 0.9849 0.0695
vn -0.0278 0.9995 0.0152
vn -0.3381 0.9320 0.1310
vn -0.5767 0.7799 0.2433
vn -0.7187 0.6244 0.3058
vn -0.9075 0.2903 0.3038
vn -0.3935 0.9182 0.0463
vn -0.6610 0.7502 -0.0150
vn -0.7948 0.6000 -0.0911
vn -0.9569 0.2608 -0.1280
vn -0.9883 0.0004 -0.1526
vn -0.7157 -0.6884 -0.1175
vn -0.1362 0.9790 0.1518
vn -0.0258 0.9967 0.0776
vn -0.5754 -0.0031 -0.8179
vn -0.4848 -0.5981 -0.6382
vn -0.1020 0.7252 -0.6809
vn -0.3212 0.7019 -0.6358
vn -0.4711 0.4712 -0.7457
vn -0.5768 0.1160 -0.8086
usemtl Material.001
s 1
f 74/1/1 90/2/2 2/3/3
f 2/3/3 1/4/4 4/5/5
f 2/3/3 103/6/6 100/7/7
f 3/8/8 1/4/4 11/9/9
f 4/5/5 3/8/8 11/9/9 12/10/10
f 5/11/11 4/5/5 12/10/10 13/12/12
f 6/13/13 5/11/11 13/12/12 14/14/14
f 7/15/15 6/13/13 14/14/14 15/16/16
f 8/17/17 7/15/15 15/16/16 16/18/18
f 9/19/19 8/17/17 16/18/18 17/20/20
f 10/21/21 9/19/19 17/20/20 18/22/22
f 15/16/16 14/14/14 22/23/23 23/24/24
f 16/18/18 15/16/16 23/24/24 24/25/25
f 17/20/20 16/18/18 24/25/25 25/26/26
f 18/22/22 17/20/20 25/26/26 26/27/27
f 11/9/9 1/28/4 19/29/28
f 12/10/10 11/9/9 19/29/28 20/30/29
f 13/12/12 12/10/10 20/30/29 21/31/30
f 14/14/14 13/12/12 21/31/30 22/23/23
f 20/30/29 19/29/28 27/32/31 28/33/32
f 21/31/30 20/30/29 28/33/32 29/34/33
f 22/23/23 21/31/30 29/34/33 30/35/34
f 23/24/24 22/23/23 30/35/34 31/36/35
f 24/25/25 23/24/24 31/36/35 32/37/36
f 25/26/26 24/25/25 32/37/36 33/38/37
f 26/27/27 25/26/26 33/38/37 34/39/38
f 19/29/28 1/40/4 27/32/31
f 32/37/36 31/36/35 39/41/39 40/42/40
f 33/38/37 32/37/36 40/42/40 41/43/41
f 34/39/38 33/38/37 41/43/41 42/44/42
f 27/32/31 1/45/4 35/46/43
f 28/33/32 27/32/31 35/46/43 36/47/44
f 29/34/33 28/33/32 36/47/44 37/48/45
f 30/35/34 29/34/33 37/48/45 38/49/46
f 31/36/35 30/35/34 38/49/46 39/41/39
f 36/47/44 35/46/43 43/50/47 44/51/48
f 37/48/45 36/47/44 44/51/48 45/52/49
f 38/49/46 37/48/45 45/52/49 46/53/50
f 39/41/39 38/49/46 46/53/50 47/54/51
f 40/42/40 39/41/39 47/54/51 48/55/52
f 41/43/41 40/42/40 48/55/52 49/56/53
f 42/44/42 41/43/41 49/56/53 50/57/54
f 35/46/43 1/58/4 43/50/47
f 48/55/52 47/54/51 55/59/55 56/60/56
f 49/56/53 48/55/52 56/60/56 57/61/57
f 50/57/54 49/56/53 57/61/57 58/62/58
f 43/50/47 1/63/4 51/64/59
f 44/51/48 43/50/47 51/64/59 52/65/60
f 45/52/49 44/51/48 52/65/60 53/66/61
f 46/53/50 45/52/49 53/66/61 54/67/62
f 47/54/51 46/53/50 54/67/62 55/59/55
f 53/66/61 52/65/60 60/68/63 61/69/64
f 54/67/62 53/66/61 61/69/64 62/70/65
f 55/59/55 54/67/62 62/70/65 63/71/66
f 56/60/56 55/59/55 63/71/66 64/72/67
f 57/61/57 56/60/56 64/72/67 65/73/68
f 58/62/58 57/61/57 65/73/68 66/74/69
f 51/64/59 1/75/4 59/76/70
f 52/65/60 51/64/59 59/76/70 60/68/63
f 65/73/68 64/72/67 72/77/71 73/78/72
f 66/74/69 65/73/68 73/78/72 74/1/1
f 59/76/70 1/79/4 67/80/73
f 60/68/63 59/76/70 67/80/73 68/81/74
f 61/69/64 60/68/63 68/81/74 69/82/75
f 62/70/65 61/69/64 69/82/75 70/83/76
f 63/71/66 62/70/65 70/83/76 71/84/77
f 64/72/67 63/71/66 71/84/77 72/77/71
f 70/83/76 69/82/75 77/85/78 78/86/79
f 71/84/77 70/83/76 78/86/79 79/87/80
f 72/77/71 71/84/77 79/87/80 80/88/81
f 73/78/72 72/77/71 80/88/81 81/89/82
f 74/1/1 73/78/72 81/89/82 82/90/83
f 67/80/73 1/91/4 75/92/84
f 68/81/74 67/80/73 75/92/84 76/93/85
f 69/82/75 68/81/74 76/93/85 77/85/78
f 82/90/83 81/89/82 89/94/86 90/2/2
f 75/92/84 1/95/4 83/96/87
f 76/93/85 75/92/84 83/96/87 84/97/88
f 77/85/78 76/93/85 84/97/88 85/98/89
f 78/86/79 77/85/78 85/98/89 86/99/90
f 79/87/80 78/86/79 86/99/90 87/100/91
f 80/88/81 79/87/80 87/100/91 88/101/92
f 81/89/82 80/88/81 88/101/92 89/94/86
f 86/99/90 85/98/89 93/102/93 94/103/94
f 87/100/91 86/99/90 94/103/94 95/104/95
f 88/101/92 87/100/91 95/104/95 96/105/96
f 89/94/86 88/101/92 96/105/96 97/106/97
f 90/2/2 89/94/86 97/106/97 98/107/98
f 83/96/87 1/108/4 91/109/99
f 84/97/88 83/96/87 91/109/99 92/110/100
f 85/98/89 84/97/88 92/110/100 93/102/93
f 98/107/98 97/106/97 105/111/101 106/112/102
f 91/109/99 1/113/4 99/114/103
f 92/110/100 91/109/99 99/114/103 100/7/7
f 93/102/93 92/110/100 100/7/7 101/115/104
f 94/103/94 93/102/93 101/115/104 102/116/105
f 95/104/95 94/103/94 102/116/105 103/6/6
f 96/105/96 95/104/95 103/6/6 104/117/106
f 97/106/97 96/105/96 104/117/106 105/111/101
f 1/4/4 3/8/8 4/5/5
f 4/5/5 5/11/11 2/3/3
f 5/11/11 6/13/13 2/3/3
f 6/13/13 7/15/15 2/3/3
f 7/15/15 8/17/17 2/3/3
f 8/17/17 9/19/19 2/3/3
f 9/19/19 10/21/21 2/3/3
f 1/113/4 2/3/3 99/114/103
f 2/3/3 106/112/102 105/111/101
f 105/111/101 104/117/106 2/3/3
f 104/117/106 103/6/6 2/3/3
f 99/114/103 2/3/3 100/7/7
f 101/115/104 100/7/7 102/116/105
f 102/116/105 100/7/7 103/6/6
f 2/3/3 10/21/21 34/39/38
f 10/21/21 18/22/22 34/39/38
f 18/22/22 26/27/27 34/39/38
f 42/44/42 50/57/54 2/3/3
f 50/57/54 58/62/58 66/74/69
f 74/1/1 50/57/54 66/74/69
f 34/39/38 42/44/42 2/3/3
f 106/112/102 2/3/3 98/107/98
f 90/2/2 98/107/98 2/3/3
f 74/1/1 82/90/83 90/2/2
f 74/1/1 2/3/3 50/57/54
