# Blender 3.4.1
# www.blender.org
mtllib Flag.mtl
o Cylinder.001_Cylinder.002
v 0.000000 0.400000 -1.000000
v 0.258819 0.400000 -0.965926
v 0.500000 0.400000 -0.866025
v 0.707107 0.400000 -0.707107
v 0.866025 0.400000 -0.500000
v 0.965926 0.400000 -0.258819
v 1.000000 0.400000 0.000000
v 0.965926 0.400000 0.258819
v 0.866025 0.400000 0.500000
v 0.707107 0.400000 0.707107
v 0.500000 0.400000 0.866025
v 0.258819 0.400000 0.965926
v 0.000000 0.400000 1.000000
v -0.258819 0.400000 0.965926
v -0.500000 0.400000 0.866025
v -0.707107 0.400000 0.707107
v -0.866025 0.400000 0.500000
v -0.965926 0.400000 0.258819
v -1.000000 0.400000 0.000000
v -0.965926 0.400000 -0.258819
v -0.866025 0.400000 -0.500000
v -0.707107 0.400000 -0.707107
v -0.500000 0.400000 -0.866025
v -0.258819 0.400000 -0.965926
v 0.000000 0.000000 -1.000000
v 0.258819 0.000000 -0.965926
v 0.500000 0.000000 -0.866025
v 0.707107 0.000000 -0.707107
v 0.866025 0.000000 -0.500000
v 0.965926 0.000000 -0.258819
v 1.000000 0.000000 0.000000
v 0.965926 -0.000000 0.258819
v 0.866025 -0.000000 0.500000
v 0.707107 -0.000000 0.707107
v 0.500000 -0.000000 0.866025
v 0.258819 -0.000000 0.965926
v 0.000000 -0.000000 1.000000
v -0.258819 -0.000000 0.965926
v -0.500000 -0.000000 0.866025
v -0.707107 -0.000000 0.707107
v -0.866025 -0.000000 0.500000
v -0.965926 -0.000000 0.258819
v -1.000000 0.000000 0.000000
v -0.965926 0.000000 -0.258819
v -0.866025 0.000000 -0.500000
v -0.707107 0.000000 -0.707107
v -0.500000 0.000000 -0.866025
v -0.258819 0.000000 -0.965926
v 0.000000 0.400000 -1.000000
v 0.258819 0.400000 -0.965926
v 0.500000 0.400000 -0.866025
v 0.707107 0.400000 -0.707107
v 0.866025 0.400000 -0.500000
v 0.965926 0.400000 -0.258819
v 1.000000 0.400000 0.000000
v 0.965926 0.400000 0.258819
v 0.866025 0.400000 0.500000
v 0.707107 0.400000 0.707107
v 0.500000 0.400000 0.866025
v 0.258819 0.400000 0.965926
v 0.000000 0.400000 1.000000
v -0.258819 0.400000 0.965926
v -0.500000 0.400000 0.866025
v -0.707107 0.400000 0.707107
v -0.866025 0.400000 0.500000
v -0.965926 0.400000 0.258819
v -1.000000 0.400000 0.000000
v -0.965926 0.400000 -0.258819
v -0.866025 0.400000 -0.500000
v -0.707107 0.400000 -0.707107
v -0.500000 0.400000 -0.866025
v -0.258819 0.400000 -0.965926
v 0.000000 0.400000 0.000000
v 0.000000 0.400000 0.000000
v 0.000000 0.400000 0.000000
v 0.000000 0.400000 0.000000
v 0.000000 0.400000 0.000000
v 0.000000 0.400000 0.000000
v 0.000000 0.400000 0.000000
v 0.000000 0.400000 0.000000
v 0.000000 0.400000 0.000000
v 0.000000 0.400000 0.000000
v 0.000000 0.400000 0.000000
v 0.000000 0.400000 0.000000
v 0.000000 0.400000 0.000000
v 0.000000 0.400000 0.000000
v 0.000000 0.400000 0.000000
v 0.000000 0.400000 0.000000
v 0.000000 0.400000 0.000000
v 0.000000 0.400000 0.000000
v 0.000000 0.400000 0.000000
v 0.000000 0.400000 0.000000
v 0.000000 0.400000 0.000000
v 0.000000 0.400000 0.000000
v 0.000000 0.400000 0.000000
v 0.000000 0.400000 0.000000
v 0.000000 0.400000 -0.200000
v 0.117557 0.400000 -0.161803
v 0.190211 0.400000 -0.061803
v 0.190211 0.400000 0.061803
v 0.117557 0.400000 0.161803
v 0.000000 0.400000 0.200000
v -0.117557 0.400000 0.161803
v -0.190211 0.400000 0.061803
v -0.190211 0.400000 -0.061803
v -0.117557 0.400000 -0.161803
v 0.000000 0.400000 -0.200000
v 0.117557 0.400000 -0.161803
v 0.190211 0.400000 -0.061803
v 0.190211 0.400000 0.061803
v 0.117557 0.400000 0.161803
v 0.000000 0.400000 0.200000
v -0.117557 0.400000 0.161803
v -0.190211 0.400000 0.061803
v -0.190211 0.400000 -0.061803
v -0.117557 0.400000 -0.161803
v 0.000000 5.400000 -0.199999
v 0.117557 5.400000 -0.161802
v 0.190211 5.400000 -0.061802
v 0.190211 5.400000 0.061804
v 0.117557 5.400000 0.161804
v 0.000000 5.400000 0.200001
v -0.117557 5.400000 0.161804
v -0.190211 5.400000 0.061804
v -0.190211 5.400000 -0.061802
v -0.117557 5.400000 -0.161802
vn -0.0000 1.0000 -0.0000
vn -0.0000 -0.0000 -1.0000
vn 0.2588 -0.0000 -0.9659
vn 0.5000 -0.0000 -0.8660
vn 0.7071 -0.0000 -0.7071
vn 0.8660 -0.0000 -0.5000
vn 0.9659 -0.0000 -0.2588
vn 1.0000 -0.0000 -0.0000
vn 0.9659 -0.0000 0.2588
vn 0.8660 -0.0000 0.5000
vn 0.7071 -0.0000 0.7071
vn 0.5000 -0.0000 0.8660
vn 0.2588 -0.0000 0.9659
vn -0.0000 -0.0000 1.0000
vn -0.2588 -0.0000 0.9659
vn -0.5000 -0.0000 0.8660
vn -0.7071 -0.0000 0.7071
vn -0.8660 -0.0000 0.5000
vn -0.9659 -0.0000 0.2588
vn -1.0000 -0.0000 -0.0000
vn -0.9659 -0.0000 -0.2588
vn -0.8660 -0.0000 -0.5000
vn -0.7071 -0.0000 -0.7071
vn -0.5000 -0.0000 -0.8660
vn -0.2588 -0.0000 -0.9659
vn 0.5878 -0.0000 0.8090
vn 0.9511 -0.0000 0.3090
vn 0.5878 -0.0000 -0.8090
vn -0.9511 -0.0000 -0.3090
vn -0.9511 -0.0000 0.3090
vn 0.9511 -0.0000 -0.3090
vn -0.5878 -0.0000 -0.8090
vn -0.5878 -0.0000 0.8090
vt 1.000000 1.000000
vt -0.000000 1.000000
vt 0.958333 1.000000
vt 0.916667 1.000000
vt 0.875000 1.000000
vt 0.833333 1.000000
vt 0.791667 1.000000
vt 0.750000 1.000000
vt 0.708333 1.000000
vt 0.666667 1.000000
vt 0.625000 1.000000
vt 0.583333 1.000000
vt 0.541666 1.000000
vt 0.500000 1.000000
vt 0.458333 1.000000
vt 0.416666 1.000000
vt 0.375000 1.000000
vt 0.333333 1.000000
vt 0.291667 1.000000
vt 0.250000 1.000000
vt 0.208333 1.000000
vt 0.166666 1.000000
vt 0.125000 1.000000
vt 0.083333 1.000000
vt 0.041666 1.000000
vt 1.000000 0.750000
vt -0.000000 0.750000
vt 0.958333 0.750000
vt 0.916667 0.750000
vt 0.875000 0.750000
vt 0.833333 0.750000
vt 0.791667 0.750000
vt 0.750000 0.750000
vt 0.708333 0.750000
vt 0.666667 0.750000
vt 0.625000 0.750000
vt 0.583333 0.750000
vt 0.541666 0.750000
vt 0.500000 0.750000
vt 0.458333 0.750000
vt 0.416666 0.750000
vt 0.375000 0.750000
vt 0.333333 0.750000
vt 0.291667 0.750000
vt 0.250000 0.750000
vt 0.208333 0.750000
vt 0.166666 0.750000
vt 0.125000 0.750000
vt 0.083333 0.750000
vt 0.041666 0.750000
vt 0.000000 0.000000
vt 0.000000 0.000000
vt 0.000000 0.000000
vt 0.000000 0.000000
vt 0.000000 0.000000
vt 0.000000 0.000000
vt 0.000000 0.000000
vt 0.000000 0.000000
vt 0.000000 0.000000
vt 0.000000 0.000000
vt 0.000000 0.000000
vt 0.000000 0.000000
vt 0.000000 0.000000
vt 0.000000 0.000000
vt 0.000000 0.000000
vt 0.000000 0.000000
vt 0.000000 0.000000
vt 0.000000 0.000000
vt 0.000000 0.000000
vt 0.000000 0.000000
vt 0.000000 0.000000
vt 0.000000 0.000000
vt 0.000000 0.000000
vt 0.000000 0.000000
vt 0.000000 0.000000
vt 0.000000 0.000000
vt 0.000000 0.000000
vt 0.000000 0.000000
vt 0.000000 0.000000
vt 0.000000 0.000000
vt 0.000000 0.000000
vt 0.000000 0.000000
vt 0.000000 0.000000
vt 0.000000 0.000000
vt 0.000000 0.000000
vt 0.000000 0.000000
vt 0.000000 0.000000
vt 0.000000 0.000000
vt 0.000000 0.000000
vt 0.000000 0.000000
vt 0.000000 0.000000
vt 0.000000 0.000000
vt 0.000000 0.000000
vt 0.000000 0.000000
vt 0.000000 0.000000
vt 0.000000 0.000000
vt 0.000000 0.000000
vt 0.000000 0.000000
vt 0.000000 0.000000
vt 0.000000 0.000000
vt 0.000000 0.000000
vt 0.000000 0.000000
vt 0.000000 0.000000
vt 0.000000 0.000000
vt 0.000000 0.000000
vt 0.000000 0.000000
vt 0.000000 0.000000
vt 0.000000 0.000000
vt 0.000000 0.000000
vt 0.000000 0.000000
vt 0.000000 0.000000
vt 0.000000 0.000000
vt 0.000000 0.000000
vt 0.000000 0.000000
vt 0.000000 0.000000
vt 0.000000 0.000000
vt 0.000000 0.000000
vt 0.000000 0.000000
s 0
usemtl Material.005
f 64/66/1 63/65/1 87/89/1 88/90/1
f 57/59/1 56/58/1 80/82/1 81/83/1
f 72/74/1 71/73/1 95/97/1 96/98/1
f 50/52/1 49/51/1 73/75/1 74/76/1
f 65/67/1 64/66/1 88/90/1 89/91/1
f 58/60/1 57/59/1 81/83/1 82/84/1
f 49/51/1 72/74/1 96/98/1 73/75/1
f 51/53/1 50/52/1 74/76/1 75/77/1
f 66/68/1 65/67/1 89/91/1 90/92/1
f 59/61/1 58/60/1 82/84/1 83/85/1
f 52/54/1 51/53/1 75/77/1 76/78/1
f 67/69/1 66/68/1 90/92/1 91/93/1
f 60/62/1 59/61/1 83/85/1 84/86/1
f 53/55/1 52/54/1 76/78/1 77/79/1
f 68/70/1 67/69/1 91/93/1 92/94/1
f 61/63/1 60/62/1 84/86/1 85/87/1
f 54/56/1 53/55/1 77/79/1 78/80/1
f 69/71/1 68/70/1 92/94/1 93/95/1
f 62/64/1 61/63/1 85/87/1 86/88/1
f 55/57/1 54/56/1 78/80/1 79/81/1
f 70/72/1 69/71/1 93/95/1 94/96/1
f 63/65/1 62/64/1 86/88/1 87/89/1
f 56/58/1 55/57/1 79/81/1 80/82/1
f 71/73/1 70/72/1 94/96/1 95/97/1
s 1
f 25/26/2 1/1/2 2/3/3 26/28/3
f 26/28/3 2/3/3 3/4/4 27/29/4
f 27/29/4 3/4/4 4/5/5 28/30/5
f 28/30/5 4/5/5 5/6/6 29/31/6
f 29/31/6 5/6/6 6/7/7 30/32/7
f 30/32/7 6/7/7 7/8/8 31/33/8
f 31/33/8 7/8/8 8/9/9 32/34/9
f 32/34/9 8/9/9 9/10/10 33/35/10
f 33/35/10 9/10/10 10/11/11 34/36/11
f 34/36/11 10/11/11 11/12/12 35/37/12
f 35/37/12 11/12/12 12/13/13 36/38/13
f 36/38/13 12/13/13 13/14/14 37/39/14
f 37/39/14 13/14/14 14/15/15 38/40/15
f 38/40/15 14/15/15 15/16/16 39/41/16
f 39/41/16 15/16/16 16/17/17 40/42/17
f 40/42/17 16/17/17 17/18/18 41/43/18
f 41/43/18 17/18/18 18/19/19 42/44/19
f 42/44/19 18/19/19 19/20/20 43/45/20
f 43/45/20 19/20/20 20/21/21 44/46/21
f 44/46/21 20/21/21 21/22/22 45/47/22
f 45/47/22 21/22/22 22/23/23 46/48/23
f 46/48/23 22/23/23 23/24/24 47/49/24
f 47/49/24 23/24/24 24/25/25 48/50/25
f 48/50/25 24/25/25 1/2/2 25/27/2
f 111/103/26 110/102/27 120/112/27 121/113/26
f 108/100/28 107/99/2 117/109/2 118/110/28
f 115/107/29 114/106/30 124/116/30 125/117/29
f 112/104/14 111/103/26 121/113/26 122/114/14
f 109/101/31 108/100/28 118/110/28 119/111/31
f 116/108/32 115/107/29 125/117/29 126/118/32
f 113/105/33 112/104/14 122/114/14 123/115/33
f 110/102/27 109/101/31 119/111/31 120/112/27
f 107/99/2 116/108/32 126/118/32 117/109/2
f 114/106/30 113/105/33 123/115/33 124/116/30
l 98 97
l 100 99
l 102 101
l 104 103
l 97 106
l 106 105
l 99 98
l 101 100
l 103 102
l 105 104
o Cylinder.001_Cylinder.001
v -0.100000 3.000000 0.000000
v -0.100000 5.000000 0.000001
v -0.100000 4.000000 -2.999999
v 0.100000 3.000000 0.000000
v 0.100000 5.000000 0.000001
v 0.100000 4.000000 -2.999999
vn -1.0000 -0.0000 -0.0000
vn 1.0000 -0.0000 -0.0000
vn -0.0000 -0.0000 1.0000
vn -0.0000 -0.9487 -0.3162
vn -0.0000 0.9487 -0.3162
vt 0.375000 0.000000
vt 0.375000 1.000000
vt 0.125000 0.750000
vt 0.625000 0.000000
vt 0.625000 1.000000
vt 0.875000 0.750000
vt 0.375000 0.250000
vt 0.125000 0.500000
vt 0.875000 0.500000
vt 0.375000 0.750000
vt 0.625000 0.750000
vt 0.375000 0.500000
vt 0.625000 0.500000
s 0
usemtl None
f 127/119/34 128/122/34 129/125/34
f 132/131/35 131/129/35 130/128/35
f 130/128/36 131/129/36 128/123/36 127/120/36
f 129/126/37 132/130/37 130/128/37 127/121/37
f 132/131/38 129/127/38 128/124/38 131/129/38
