# Blender v2.93.5 OBJ File: ''
# www.blender.org
mtllib Flag.mtl
o Cylinder.001_Cylinder.002
v 0.000000 0.400000 -1.000000
v 0.258819 0.400000 -0.965926
v 0.500000 0.400000 -0.866025
v 0.707107 0.400000 -0.707107
v 0.866025 0.400000 -0.500000
v 0.965926 0.400000 -0.258819
v 1.000000 0.400000 0.000000
v 0.965926 0.400000 0.258819
v 0.866025 0.400000 0.500000
v 0.707107 0.400000 0.707107
v 0.500000 0.400000 0.866025
v 0.258819 0.400000 0.965926
v -0.000000 0.400000 1.000000
v -0.258819 0.400000 0.965926
v -0.500000 0.400000 0.866025
v -0.707107 0.400000 0.707107
v -0.866025 0.400000 0.500000
v -0.965926 0.400000 0.258819
v -1.000000 0.400000 -0.000000
v -0.965926 0.400000 -0.258819
v -0.866025 0.400000 -0.500000
v -0.707107 0.400000 -0.707107
v -0.500000 0.400000 -0.866025
v -0.258819 0.400000 -0.965926
v 0.000000 0.000000 -1.000000
v 0.258819 0.000000 -0.965926
v 0.500000 0.000000 -0.866025
v 0.707107 0.000000 -0.707107
v 0.866025 0.000000 -0.500000
v 0.965926 0.000000 -0.258819
v 1.000000 0.000000 0.000000
v 0.965926 0.000000 0.258819
v 0.866025 0.000000 0.500000
v 0.707107 0.000000 0.707107
v 0.500000 0.000000 0.866025
v 0.258819 0.000000 0.965926
v -0.000000 0.000000 1.000000
v -0.258819 0.000000 0.965926
v -0.500000 0.000000 0.866025
v -0.707107 0.000000 0.707107
v -0.866025 0.000000 0.500000
v -0.965926 0.000000 0.258819
v -1.000000 0.000000 -0.000000
v -0.965926 0.000000 -0.258819
v -0.866025 0.000000 -0.500000
v -0.707107 0.000000 -0.707107
v -0.500000 0.000000 -0.866025
v -0.258819 0.000000 -0.965926
v 0.000000 0.400000 -1.000000
v 0.258819 0.400000 -0.965926
v 0.500000 0.400000 -0.866025
v 0.707107 0.400000 -0.707107
v 0.866025 0.400000 -0.500000
v 0.965926 0.400000 -0.258819
v 1.000000 0.400000 0.000000
v 0.965926 0.400000 0.258819
v 0.866025 0.400000 0.500000
v 0.707107 0.400000 0.707107
v 0.500000 0.400000 0.866025
v 0.258819 0.400000 0.965926
v -0.000000 0.400000 1.000000
v -0.258819 0.400000 0.965926
v -0.500000 0.400000 0.866025
v -0.707107 0.400000 0.707107
v -0.866025 0.400000 0.500000
v -0.965926 0.400000 0.258819
v -1.000000 0.400000 -0.000000
v -0.965926 0.400000 -0.258819
v -0.866025 0.400000 -0.500000
v -0.707107 0.400000 -0.707107
v -0.500000 0.400000 -0.866025
v -0.258819 0.400000 -0.965926
v -0.000000 0.400000 0.000000
v 0.000000 0.400000 0.000000
v 0.000000 0.400000 0.000000
v 0.000000 0.400000 0.000000
v 0.000000 0.400000 0.000000
v 0.000000 0.400000 0.000000
v 0.000000 0.400000 0.000000
v 0.000000 0.400000 0.000000
v 0.000000 0.400000 0.000000
v 0.000000 0.400000 0.000000
v 0.000000 0.400000 0.000000
v 0.000000 0.400000 0.000000
v -0.000000 0.400000 0.000000
v 0.000000 0.400000 0.000000
v 0.000000 0.400000 0.000000
v 0.000000 0.400000 0.000000
v 0.000000 0.400000 0.000000
v 0.000000 0.400000 0.000000
v 0.000000 0.400000 0.000000
v 0.000000 0.400000 0.000000
v 0.000000 0.400000 0.000000
v 0.000000 0.400000 0.000000
v 0.000000 0.400000 0.000000
v 0.000000 0.400000 0.000000
v -0.000000 0.400000 -0.200000
v 0.117557 0.400000 -0.161803
v 0.190211 0.400000 -0.061803
v 0.190211 0.400000 0.061803
v 0.117557 0.400000 0.161803
v -0.000000 0.400000 0.200000
v -0.117557 0.400000 0.161803
v -0.190211 0.400000 0.061803
v -0.190211 0.400000 -0.061803
v -0.117557 0.400000 -0.161803
v -0.000000 0.400000 -0.200000
v 0.117557 0.400000 -0.161803
v 0.190211 0.400000 -0.061803
v 0.190211 0.400000 0.061803
v 0.117557 0.400000 0.161803
v -0.000000 0.400000 0.200000
v -0.117557 0.400000 0.161803
v -0.190211 0.400000 0.061803
v -0.190211 0.400000 -0.061803
v -0.117557 0.400000 -0.161803
v -0.000000 5.400000 -0.200000
v 0.117557 5.400000 -0.161803
v 0.190211 5.400000 -0.061803
v 0.190211 5.400000 0.061803
v 0.117557 5.400000 0.161803
v -0.000000 5.400000 0.200000
v -0.117557 5.400000 0.161803
v -0.190211 5.400000 0.061803
v -0.190211 5.400000 -0.061803
v -0.117557 5.400000 -0.161803
v 0.000000 5.000000 0.000000
v -0.100000 3.000000 0.000000
v -0.100000 5.000000 0.000000
v -0.100000 4.000000 -3.000000
v 0.100000 3.000000 0.000000
v 0.100000 5.000000 0.000000
v 0.100000 4.000000 -3.000000
vt 0.000000 0.000000
vt 0.000000 0.000000
vt 0.000000 0.000000
vt 0.000000 0.000000
vt 0.000000 0.000000
vt 0.000000 0.000000
vt 0.000000 0.000000
vt 0.000000 0.000000
vt 0.000000 0.000000
vt 0.000000 0.000000
vt 0.000000 0.000000
vt 0.000000 0.000000
vt 0.000000 0.000000
vt 0.000000 0.000000
vt 0.000000 0.000000
vt 0.000000 0.000000
vt 0.000000 0.000000
vt 0.000000 0.000000
vt 0.000000 0.000000
vt 0.000000 0.000000
vt 0.000000 0.000000
vt 0.000000 0.000000
vt 0.000000 0.000000
vt 0.000000 0.000000
vt 0.000000 0.000000
vt 0.000000 0.000000
vt 0.000000 0.000000
vt 0.000000 0.000000
vt 0.000000 0.000000
vt 0.000000 0.000000
vt 0.000000 0.000000
vt 0.000000 0.000000
vt 0.000000 0.000000
vt 0.000000 0.000000
vt 0.000000 0.000000
vt 0.000000 0.000000
vt 0.000000 0.000000
vt 0.000000 0.000000
vt 0.000000 0.000000
vt 0.000000 0.000000
vt 0.000000 0.000000
vt 0.000000 0.000000
vt 0.000000 0.000000
vt 0.000000 0.000000
vt 0.000000 0.000000
vt 0.000000 0.000000
vt 0.000000 0.000000
vt 0.000000 0.000000
vt 0.375000 0.000000
vt 0.625000 0.000000
vt 0.375000 0.250000
vt 0.625000 0.500000
vt 0.625000 0.750000
vt 0.375000 0.750000
vt 0.625000 1.000000
vt 0.375000 1.000000
vt 0.125000 0.500000
vt 0.375000 0.500000
vt 0.125000 0.750000
vt 0.875000 0.500000
vt 0.875000 0.750000
vt 1.000000 0.750000
vt 1.000000 1.000000
vt 0.958333 1.000000
vt 0.958333 0.750000
vt 0.916667 1.000000
vt 0.916667 0.750000
vt 0.875000 1.000000
vt 0.875000 0.750000
vt 0.833333 1.000000
vt 0.833333 0.750000
vt 0.791667 1.000000
vt 0.791667 0.750000
vt 0.750000 1.000000
vt 0.750000 0.750000
vt 0.708333 1.000000
vt 0.708333 0.750000
vt 0.666667 1.000000
vt 0.666667 0.750000
vt 0.625000 1.000000
vt 0.625000 0.750000
vt 0.583333 1.000000
vt 0.583333 0.750000
vt 0.541666 1.000000
vt 0.541666 0.750000
vt 0.500000 1.000000
vt 0.500000 0.750000
vt 0.458333 1.000000
vt 0.458333 0.750000
vt 0.416666 1.000000
vt 0.416666 0.750000
vt 0.375000 1.000000
vt 0.375000 0.750000
vt 0.333333 1.000000
vt 0.333333 0.750000
vt 0.291667 1.000000
vt 0.291667 0.750000
vt 0.250000 1.000000
vt 0.250000 0.750000
vt 0.208333 1.000000
vt 0.208333 0.750000
vt 0.166666 1.000000
vt 0.166666 0.750000
vt 0.125000 1.000000
vt 0.125000 0.750000
vt 0.083333 1.000000
vt 0.083333 0.750000
vt 0.041666 1.000000
vt 0.041666 0.750000
vt -0.000000 1.000000
vt -0.000000 0.750000
vt 0.000000 0.000000
vt 0.000000 0.000000
vt 0.000000 0.000000
vt 0.000000 0.000000
vt 0.000000 0.000000
vt 0.000000 0.000000
vt 0.000000 0.000000
vt 0.000000 0.000000
vt 0.000000 0.000000
vt 0.000000 0.000000
vt 0.000000 0.000000
vt 0.000000 0.000000
vt 0.000000 0.000000
vt 0.000000 0.000000
vt 0.000000 0.000000
vt 0.000000 0.000000
vt 0.000000 0.000000
vt 0.000000 0.000000
vt 0.000000 0.000000
vt 0.000000 0.000000
vn 0.0000 1.0000 0.0000
vn -1.0000 0.0000 0.0000
vn 1.0000 0.0000 0.0000
vn 0.0000 0.0000 1.0000
vn 0.0000 -0.9487 -0.3162
vn 0.0000 0.9487 -0.3162
vn 0.0000 0.0000 -1.0000
vn 0.2588 0.0000 -0.9659
vn 0.5000 0.0000 -0.8660
vn 0.7071 0.0000 -0.7071
vn 0.8660 0.0000 -0.5000
vn 0.9659 0.0000 -0.2588
vn 0.9659 0.0000 0.2588
vn 0.8660 0.0000 0.5000
vn 0.7071 0.0000 0.7071
vn 0.5000 0.0000 0.8660
vn 0.2588 0.0000 0.9659
vn -0.2588 0.0000 0.9659
vn -0.5000 0.0000 0.8660
vn -0.7071 0.0000 0.7071
vn -0.8660 0.0000 0.5000
vn -0.9659 0.0000 0.2588
vn -0.9659 0.0000 -0.2588
vn -0.8660 0.0000 -0.5000
vn -0.7071 0.0000 -0.7071
vn -0.5000 0.0000 -0.8660
vn -0.2588 0.0000 -0.9659
vn 0.5878 0.0000 0.8090
vn 0.9510 0.0000 0.3090
vn 0.5878 0.0000 -0.8090
vn -0.9510 0.0000 -0.3090
vn -0.9510 0.0000 0.3090
vn 0.9510 0.0000 -0.3090
vn -0.5878 0.0000 -0.8090
vn -0.5878 0.0000 0.8090
usemtl None
s off
f 64/1/1 63/2/1 87/3/1 88/4/1
f 57/5/1 56/6/1 80/7/1 81/8/1
f 72/9/1 71/10/1 95/11/1 96/12/1
f 50/13/1 49/14/1 73/15/1 74/16/1
f 65/17/1 64/1/1 88/4/1 89/18/1
f 58/19/1 57/5/1 81/8/1 82/20/1
f 49/14/1 72/9/1 96/12/1 73/15/1
f 51/21/1 50/13/1 74/16/1 75/22/1
f 66/23/1 65/17/1 89/18/1 90/24/1
f 59/25/1 58/19/1 82/20/1 83/26/1
f 52/27/1 51/21/1 75/22/1 76/28/1
f 67/29/1 66/23/1 90/24/1 91/30/1
f 60/31/1 59/25/1 83/26/1 84/32/1
f 53/33/1 52/27/1 76/28/1 77/34/1
f 68/35/1 67/29/1 91/30/1 92/36/1
f 61/37/1 60/31/1 84/32/1 85/38/1
f 54/39/1 53/33/1 77/34/1 78/40/1
f 69/41/1 68/35/1 92/36/1 93/42/1
f 62/43/1 61/37/1 85/38/1 86/44/1
f 55/45/1 54/39/1 78/40/1 79/46/1
f 70/47/1 69/41/1 93/42/1 94/48/1
f 63/2/1 62/43/1 86/44/1 87/3/1
f 56/6/1 55/45/1 79/46/1 80/7/1
f 71/10/1 70/47/1 94/48/1 95/11/1
f 128/49/2 129/50/2 130/51/2
f 133/52/3 132/53/3 131/54/3
f 131/54/4 132/53/4 129/55/4 128/56/4
f 130/57/5 133/58/5 131/54/5 128/59/5
f 133/52/6 130/60/6 129/61/6 132/53/6
s 1
f 25/62/7 1/63/7 2/64/8 26/65/8
f 26/65/8 2/64/8 3/66/9 27/67/9
f 27/67/9 3/66/9 4/68/10 28/69/10
f 28/69/10 4/68/10 5/70/11 29/71/11
f 29/71/11 5/70/11 6/72/12 30/73/12
f 30/73/12 6/72/12 7/74/3 31/75/3
f 31/75/3 7/74/3 8/76/13 32/77/13
f 32/77/13 8/76/13 9/78/14 33/79/14
f 33/79/14 9/78/14 10/80/15 34/81/15
f 34/81/15 10/80/15 11/82/16 35/83/16
f 35/83/16 11/82/16 12/84/17 36/85/17
f 36/85/17 12/84/17 13/86/4 37/87/4
f 37/87/4 13/86/4 14/88/18 38/89/18
f 38/89/18 14/88/18 15/90/19 39/91/19
f 39/91/19 15/90/19 16/92/20 40/93/20
f 40/93/20 16/92/20 17/94/21 41/95/21
f 41/95/21 17/94/21 18/96/22 42/97/22
f 42/97/22 18/96/22 19/98/2 43/99/2
f 43/99/2 19/98/2 20/100/23 44/101/23
f 44/101/23 20/100/23 21/102/24 45/103/24
f 45/103/24 21/102/24 22/104/25 46/105/25
f 46/105/25 22/104/25 23/106/26 47/107/26
f 47/107/26 23/106/26 24/108/27 48/109/27
f 48/109/27 24/108/27 1/110/7 25/111/7
f 111/112/28 110/113/29 120/114/29 121/115/28
f 108/116/30 107/117/7 117/118/7 118/119/30
f 115/120/31 114/121/32 124/122/32 125/123/31
f 112/124/4 111/112/28 121/115/28 122/125/4
f 109/126/33 108/116/30 118/119/30 119/127/33
f 116/128/34 115/120/31 125/123/31 126/129/34
f 113/130/35 112/124/4 122/125/4 123/131/35
f 110/113/29 109/126/33 119/127/33 120/114/29
f 107/117/7 116/128/34 126/129/34 117/118/7
f 114/121/32 113/130/35 123/131/35 124/122/32
l 98 97
l 99 98
l 100 99
l 101 100
l 102 101
l 103 102
l 104 103
l 105 104
l 106 105
l 97 106
